<?xml version="1.0" encoding="UTF-8"?>
<svg version="1.1" xmlns="http://www.w3.org/2000/svg" width="512" height="512">
    <path d="M0 0 C0.70526825 0.00054382 1.4105365 0.00108765 2.13717651 0.00164795 C13.02163126 0.04020757 22.95428565 0.76140843 33.3125 4.375 C33.94849121 4.58930664 34.58448242 4.80361328 35.23974609 5.02441406 C53.43432417 11.25400546 67.49985044 22.76889538 81.39453125 35.67578125 C84.09062414 38.1697574 86.81872684 40.62125619 89.5625 43.0625 C95.8476709 48.71412567 101.79471432 54.59288417 107.2890625 61.01953125 C108.82442463 62.80683504 110.38663197 64.5711204 111.9609375 66.32421875 C128.54803051 84.94374432 142.69350298 106.51220076 150.3125 130.375 C150.65152344 131.40238281 150.99054688 132.42976562 151.33984375 133.48828125 C155.33843681 147.69526395 155.26085416 164.80641698 149.3125 178.375 C148.81492187 179.54417969 148.31734375 180.71335938 147.8046875 181.91796875 C141.85075447 195.17416291 133.44913161 204.1673416 120 209.75 C114.44355317 210.69177065 108.93336466 210.52714371 103.3125 210.375 C103.3125 207.375 103.3125 207.375 104.78125 205.67578125 C105.4515625 205.01964844 106.121875 204.36351562 106.8125 203.6875 C110.6779064 199.50514406 113.24301401 195.18678444 115.75 190.125 C116.09160156 189.43962158 116.43320312 188.75424316 116.78515625 188.0480957 C119.18557365 183.0490557 120.43989094 178.64240765 120.5625 173.125 C120.58828125 172.43921875 120.6140625 171.7534375 120.640625 171.046875 C120.13998673 166.97024912 118.69707051 163.22799033 117.3125 159.375 C117.15394531 160.60734375 116.99539063 161.8396875 116.83203125 163.109375 C114.92928919 176.9860518 112.55594878 189.85981882 101.3125 199.375 C93.29606808 204.375 93.29606808 204.375 89.3125 204.375 C89.32821045 205.15286865 89.3439209 205.9307373 89.36010742 206.73217773 C89.6695282 224.52060859 89.17144075 241.76093848 86.3125 259.375 C86.17859863 260.20999023 86.04469727 261.04498047 85.90673828 261.90527344 C81.32529282 289.19402861 70.98988875 317.54789685 52.3125 338.375 C51.82700684 338.91801758 51.34151367 339.46103516 50.84130859 340.02050781 C39.70193279 352.29454725 24.15191168 364.65597573 7.3125 367.375 C7.43367188 368.04402344 7.55484375 368.71304687 7.6796875 369.40234375 C8.77283376 375.66691269 9.68060673 381.93729036 10.4375 388.25 C10.52499512 388.962771 10.61249023 389.67554199 10.70263672 390.40991211 C11.17069303 394.42606132 11.34611926 398.33568108 11.3125 402.375 C12.26352097 402.6079628 13.21454193 402.8409256 14.19438171 403.08094788 C24.47558217 405.61578639 34.69243401 408.34856991 44.89453125 411.18359375 C45.69357061 411.40536852 46.49260998 411.62714329 47.31586266 411.8556385 C51.53087419 413.02594479 55.74510641 414.19901114 59.95874023 415.37426758 C64.27095142 416.57634595 68.58598039 417.76797385 72.90169239 418.95741177 C76.2622264 419.88575109 79.62049144 420.82210179 82.97821617 421.76054573 C84.56756989 422.20324933 86.1577538 422.64298505 87.74881935 423.07949638 C96.62087732 425.51658882 105.06272679 428.22120737 113.3125 432.375 C114.24161697 432.82536118 115.17073395 433.27572235 116.12800598 433.73973083 C136.10935953 443.57834877 150.96234142 462.36058164 158.31640625 483.125 C161.44721438 493.34002887 162.3125 501.48141379 162.3125 512.375 C21.0725 512.375 -120.1675 512.375 -265.6875 512.375 C-265.6875 498.34638916 -265.6875 498.34638916 -264.0625 492 C-263.88428711 491.28303955 -263.70607422 490.5660791 -263.52246094 489.82739258 C-257.47139936 466.69564832 -243.02693438 447.7074826 -222.6875 435.375 C-214.12632722 430.4260503 -205.20778357 427.50375194 -195.765625 424.7578125 C-194.59939102 424.41560669 -193.43315704 424.07340088 -192.23158264 423.7208252 C-178.65196347 419.75240295 -165.03733485 415.90608267 -151.41674805 412.08105469 C-147.7724549 411.05757236 -144.12936049 410.0298869 -140.48652554 409.00122833 C-137.64671977 408.19990605 -134.80624521 407.40097644 -131.96556282 406.60276794 C-130.61889042 406.22399867 -129.27244527 405.84442047 -127.92623711 405.46400452 C-126.07188568 404.94031624 -124.21651031 404.42025772 -122.36108398 403.90039062 C-120.78447243 403.45693298 -120.78447243 403.45693298 -119.17601013 403.0045166 C-116.6875 402.375 -116.6875 402.375 -114.6875 402.375 C-114.69273682 401.70895752 -114.69797363 401.04291504 -114.70336914 400.35668945 C-114.80186584 385.70811142 -114.640199 371.09993435 -114.04321289 356.4621582 C-113.95309643 354.20988926 -113.87377702 351.95715799 -113.80615234 349.70410156 C-113.72503146 347.42804317 -113.59818483 345.15327774 -113.43212891 342.88183594 C-112.96321007 335.60870239 -112.96321007 335.60870239 -116.3984375 329.5 C-117.59130199 328.42582602 -118.81445668 327.38453619 -120.0625 326.375 C-121.35978015 325.20541523 -122.65139666 324.02952025 -123.9375 322.84765625 C-124.8965625 321.98164795 -124.8965625 321.98164795 -125.875 321.09814453 C-140.26235574 307.42007923 -151.54997725 286.19135265 -157.6875 267.375 C-157.6875 266.715 -157.6875 266.055 -157.6875 265.375 C-158.80125 265.4575 -159.915 265.54 -161.0625 265.625 C-170.76819803 265.59070425 -178.72599559 260.07315492 -185.52734375 253.6328125 C-195.41824415 243.2008344 -199.21305301 230.50205311 -198.94140625 216.39453125 C-198.26808081 208.38713798 -195.83003595 198.51753595 -189.96484375 192.65234375 C-187.98197173 189.11713155 -189.25694043 186.08239575 -190.25 182.375 C-190.6464635 180.74916788 -191.04092384 179.12284626 -191.43359375 177.49609375 C-191.64226074 176.65288574 -191.85092773 175.80967773 -192.06591797 174.94091797 C-200.56467944 139.85765674 -205.00202445 97.766547 -185.91357422 65.25610352 C-182.45585174 59.69336589 -178.26757895 55.02243305 -173.6875 50.375 C-172.9140625 49.49328125 -172.9140625 49.49328125 -172.125 48.59375 C-154.65977441 29.30923007 -125.14864799 17.85993182 -99.6875 16.375 C-92.31423793 16.0793528 -85.71439405 16.35157717 -78.5 17.9375 C-70.76936606 19.0827791 -66.15232475 16.76675313 -59.38378906 13.18554688 C-52.85606318 9.77184592 -46.32993714 7.45616659 -39.25 5.4375 C-37.79509155 5.01513062 -37.79509155 5.01513062 -36.31079102 4.58422852 C-24.19393844 1.20990209 -12.57220366 -0.03657771 0 0 Z " fill="#FDB3A8" transform="translate(307.6875,-0.375)"/>
    <path d="M0 0 C0.70526825 0.00054382 1.4105365 0.00108765 2.13717651 0.00164795 C13.02163126 0.04020757 22.95428565 0.76140843 33.3125 4.375 C33.94849121 4.58930664 34.58448242 4.80361328 35.23974609 5.02441406 C53.43432417 11.25400546 67.49985044 22.76889538 81.39453125 35.67578125 C84.09062414 38.1697574 86.81872684 40.62125619 89.5625 43.0625 C95.8476709 48.71412567 101.79471432 54.59288417 107.2890625 61.01953125 C108.82442463 62.80683504 110.38663197 64.5711204 111.9609375 66.32421875 C128.54803051 84.94374432 142.69350298 106.51220076 150.3125 130.375 C150.65152344 131.40238281 150.99054688 132.42976562 151.33984375 133.48828125 C155.33843681 147.69526395 155.26085416 164.80641698 149.3125 178.375 C148.81492187 179.54417969 148.31734375 180.71335938 147.8046875 181.91796875 C141.85075447 195.17416291 133.44913161 204.1673416 120 209.75 C114.44355317 210.69177065 108.93336466 210.52714371 103.3125 210.375 C103.3125 207.375 103.3125 207.375 104.78125 205.67578125 C105.4515625 205.01964844 106.121875 204.36351562 106.8125 203.6875 C110.6779064 199.50514406 113.24301401 195.18678444 115.75 190.125 C116.09160156 189.43962158 116.43320312 188.75424316 116.78515625 188.0480957 C119.18557365 183.0490557 120.43989094 178.64240765 120.5625 173.125 C120.58828125 172.43921875 120.6140625 171.7534375 120.640625 171.046875 C120.13998673 166.97024912 118.69707051 163.22799033 117.3125 159.375 C117.15394531 160.60734375 116.99539063 161.8396875 116.83203125 163.109375 C114.92165671 177.0417154 112.52178376 189.77264154 101.3125 199.375 C96.1626838 202.9134221 90.87754864 205.33863882 84.53125 204.9140625 C73.83989297 202.31651449 66.73731206 191.73748921 61.25 183 C57.34947474 176.98095415 54.9194547 175.41351691 48.0078125 173.85546875 C35.89071358 171.69546416 27.5184373 174.00349677 17.3125 180.375 C16.6525 181.035 15.9925 181.695 15.3125 182.375 C12.6875 182.5 12.6875 182.5 10.3125 182.375 C9.875 180.25 9.875 180.25 10.3125 177.375 C16.27138896 170.24984531 25.30542333 166.56799029 34.3125 165.375 C40.48063341 164.92090429 45.36562866 165.54295651 51.3125 167.375 C25.18958883 113.3638643 25.18958883 113.3638643 -19.625 77.4375 C-30.28067285 74.76095658 -39.08666417 76.13470315 -48.6875 81.375 C-52.59337892 83.79139423 -56.12109691 86.48766494 -59.6875 89.375 C-60.63625 90.00019531 -61.585 90.62539062 -62.5625 91.26953125 C-66.42419625 94.22614244 -69.18919262 96.85017435 -70.16259766 101.78222656 C-70.64706021 106.79942507 -70.63843985 111.79945085 -70.625 116.8359375 C-70.60938776 123.35209504 -71.25763247 129.67300293 -72.125 136.125 C-72.25890137 137.13175781 -72.39280273 138.13851562 -72.53076172 139.17578125 C-72.90368331 141.91084388 -73.29117722 144.64324161 -73.6875 147.375 C-73.78708008 148.07206055 -73.88666016 148.76912109 -73.98925781 149.48730469 C-74.79245212 155.01620222 -75.84151719 160.08982099 -77.6875 165.375 C-76.61113281 165.38917969 -75.53476563 165.40335938 -74.42578125 165.41796875 C-65.16243607 165.66913482 -55.67640117 166.10232523 -47.6875 171.375 C-46.78125 173.984375 -46.78125 173.984375 -46.6875 176.375 C-47.0175 176.705 -47.3475 177.035 -47.6875 177.375 C-51.94723923 177.00458789 -55.73078618 176.07162517 -59.8125 174.8125 C-65.99032364 173.07552189 -72.31063776 172.45107962 -78.6875 173.375 C-82.04344751 175.59929079 -83.19177909 179.37113103 -84.8125 182.9375 C-90.81927568 195.47781933 -100.98885647 205.8260461 -114.1796875 210.6640625 C-118.02074783 211.75296122 -121.70698889 212.11819283 -125.6875 212.375 C-125.90664062 211.61316406 -126.12578125 210.85132813 -126.3515625 210.06640625 C-129.93949159 198.3837591 -135.26613549 189.57869507 -145.82421875 183.0546875 C-154.37003059 178.90510824 -165.32712677 178.56485218 -174.2734375 181.5859375 C-179.24151409 184.00250809 -183.43351242 186.85551388 -187.6875 190.375 C-198.88584007 152.3740755 -207.34996154 105.67547381 -187.93798828 68.79272461 C-184.05918965 61.84250052 -179.26567604 56.03520804 -173.6875 50.375 C-172.9140625 49.49328125 -172.9140625 49.49328125 -172.125 48.59375 C-154.65977441 29.30923007 -125.14864799 17.85993182 -99.6875 16.375 C-92.31423793 16.0793528 -85.71439405 16.35157717 -78.5 17.9375 C-70.76936606 19.0827791 -66.15232475 16.76675313 -59.38378906 13.18554688 C-52.85606318 9.77184592 -46.32993714 7.45616659 -39.25 5.4375 C-37.79509155 5.01513062 -37.79509155 5.01513062 -36.31079102 4.58422852 C-24.19393844 1.20990209 -12.57220366 -0.03657771 0 0 Z " fill="#352120" transform="translate(307.6875,-0.375)"/>
    <path d="M0 0 C0.07516846 0.58378418 0.15033691 1.16756836 0.2277832 1.76904297 C0.58082396 4.47221973 0.94660075 7.17353489 1.3125 9.875 C1.48942383 11.25171875 1.48942383 11.25171875 1.66992188 12.65625 C3.63114069 26.93794597 8.3871622 41.10570245 18.71484375 51.546875 C20 53 20 53 20 55 C20.57621094 55.27199219 21.15242187 55.54398437 21.74609375 55.82421875 C24.00492253 57.0025679 25.98501721 58.34078789 28.0625 59.8125 C40.45460515 68.0940532 55.12203975 72.54397057 70 73 C70.65339355 73.02578125 71.30678711 73.0515625 71.97998047 73.078125 C87.76507381 73.64580649 105.22519476 72.93052215 117.5 61.70703125 C120.05556897 58.79874052 121.53189153 55.55163614 123 52 C123.391875 51.175 123.78375 50.35 124.1875 49.5 C126.26391691 43.11102488 126.13993014 36.33650302 126.09765625 29.6875 C126.0962413 28.83317383 126.09482635 27.97884766 126.09336853 27.09863281 C126.08781962 24.39905127 126.07527697 21.69955601 126.0625 19 C126.05747839 17.15755329 126.05291664 15.31510527 126.04882812 13.47265625 C126.03786699 8.98173814 126.02063825 4.49088364 126 0 C137.24659112 2.75497328 148.42593532 5.70846667 159.58203125 8.80859375 C160.38107061 9.03036852 161.18010998 9.25214329 162.00336266 9.4806385 C166.21837419 10.65094479 170.43260641 11.82401114 174.64624023 12.99926758 C178.95845142 14.20134595 183.27348039 15.39297385 187.58919239 16.58241177 C190.9497264 17.51075109 194.30799144 18.44710179 197.66571617 19.38554573 C199.25506989 19.82824933 200.8452538 20.26798505 202.43631935 20.70449638 C211.30837732 23.14158882 219.75022679 25.84620737 228 30 C228.92911697 30.45036118 229.85823395 30.90072235 230.81550598 31.36473083 C250.79685953 41.20334877 265.64984142 59.98558164 273.00390625 80.75 C276.13471438 90.96502887 277 99.10641379 277 110 C135.76 110 -5.48 110 -151 110 C-151 95.97138916 -151 95.97138916 -149.375 89.625 C-149.19678711 88.90803955 -149.01857422 88.1910791 -148.83496094 87.45239258 C-142.78389936 64.32064832 -128.33943438 45.3324826 -108 33 C-99.43882722 28.0510503 -90.52028357 25.12875194 -81.078125 22.3828125 C-79.91189102 22.04060669 -78.74565704 21.69840088 -77.54408264 21.3458252 C-63.96446347 17.37740295 -50.34983485 13.53108267 -36.72924805 9.70605469 C-33.0849549 8.68257236 -29.44186049 7.6548869 -25.79902554 6.62622833 C-22.95921977 5.82490605 -20.11874521 5.02597644 -17.27806282 4.22776794 C-15.93139042 3.84899867 -14.58494527 3.46942047 -13.23873711 3.08900452 C-11.38438568 2.56531624 -9.52901031 2.04525772 -7.67358398 1.52539062 C-6.62250961 1.2297522 -5.57143524 0.93411377 -4.48851013 0.6295166 C-2 0 -2 0 0 0 Z " fill="#352120" transform="translate(193,402)"/>
    <path d="M0 0 C1.03125 0.78375 2.0625 1.5675 3.125 2.375 C4.74842505 3.5854485 6.3736757 4.79344967 8 6 C9.01835937 6.76183594 10.03671875 7.52367187 11.0859375 8.30859375 C35.1745341 26.09438881 62.22788339 37.45624102 92.5625 37.25 C93.70396484 37.25773437 94.84542969 37.26546875 96.02148438 37.2734375 C103.24540607 37.25693511 109.94049134 36.47575806 117 35 C119.33010781 34.63039317 121.66130669 34.31182577 124 34 C125.56504486 38.86259594 126.25591725 42.95604044 126.265625 48.11328125 C126.26753845 48.76773727 126.2694519 49.4221933 126.27142334 50.09648132 C126.27277493 51.47212105 126.26915079 52.84777398 126.26074219 54.22338867 C126.25007963 56.29701353 126.26064511 58.36976189 126.2734375 60.44335938 C126.288735 74.33015778 124.69069071 86.75967895 114.92578125 97.27734375 C111.91984144 99.96622703 108.73479664 101.54629033 105 103 C104.0925 103.37125 103.185 103.7425 102.25 104.125 C77.36458995 110.82491809 50.0671384 107.39456236 27.734375 94.67578125 C14.93666284 86.83261194 5.53275728 72.45058621 1.8671875 57.91796875 C1.12022203 54.28104466 0.49681097 50.67886469 0 47 C-0.17200928 45.76846191 -0.34401855 44.53692383 -0.52124023 43.26806641 C-1.02107971 39.23871222 -1.12929399 35.27381042 -1.1328125 31.2109375 C-1.13376923 30.50401764 -1.13472595 29.79709778 -1.13571167 29.0687561 C-1.13638656 27.58815419 -1.13458101 26.1075492 -1.13037109 24.62695312 C-1.12499673 22.37363 -1.13034791 20.12050468 -1.13671875 17.8671875 C-1.13605816 16.4192704 -1.13477739 14.97135342 -1.1328125 13.5234375 C-1.13168457 12.22325684 -1.13055664 10.92307617 -1.12939453 9.58349609 C-1.01057949 6.2929921 -0.62737163 3.22781767 0 0 Z " fill="#FDB3A8" transform="translate(194,369)"/>
    <path d="M0 0 C0.47888672 0.36496582 0.95777344 0.72993164 1.45117188 1.10595703 C27.5382193 20.84801834 56.11144666 36.18938681 89.5559082 36.18530273 C91.53275708 36.18746743 93.50956647 36.20591427 95.48632812 36.22460938 C103.84380641 36.23718962 111.78472141 35.53845801 120 34 C121.22904808 40.89591202 122.28106173 47.79708208 123.125 54.75 C123.21249512 55.44601318 123.29999023 56.14202637 123.39013672 56.85913086 C123.94821583 61.60280331 124.0749653 66.22363916 124 71 C122.906875 71.12375 121.81375 71.2475 120.6875 71.375 C117.42050773 71.77251018 114.2381758 72.35205083 111.015625 73.015625 C78.23396752 79.00376662 45.16741832 68.9893641 17.80859375 51 C4.57971014 41.57971014 4.57971014 41.57971014 -1 36 C-1.24291992 33.86791992 -1.24291992 33.86791992 -1.23046875 31.23046875 C-1.22917969 30.26439697 -1.22789062 29.2983252 -1.2265625 28.30297852 C-1.21367187 27.27487061 -1.20078125 26.2467627 -1.1875 25.1875 C-1.18105469 24.14972412 -1.17460937 23.11194824 -1.16796875 22.04272461 C-1.09421629 14.65883624 -0.78953913 7.34553373 0 0 Z " fill="#F47D71" transform="translate(195,333)"/>
    <path d="M0 0 C4.67894435 1.55964812 6.90903551 4.10935659 9.5625 8.1875 C11.62435331 14.37305992 11.65979467 21.72489529 8.875 27.6875 C6.91059222 30.9775396 4.99965457 33.34902198 1.5625 35.1875 C-1.9375 35.3125 -1.9375 35.3125 -5.4375 34.1875 C-10.66595322 29.19142248 -12.4766667 24.39749922 -12.8125 17.3125 C-12.66533157 10.79784439 -10.43976604 6.40622724 -6.125 1.625 C-3.4375 0.1875 -3.4375 0.1875 0 0 Z " fill="#392423" transform="translate(335.4375,189.8125)"/>
    <path d="M0 0 C2.92533462 0.24153865 4.49779254 0.44094351 6.49462891 2.66381836 C6.90116699 3.38190674 7.30770508 4.09999512 7.7265625 4.83984375 C8.19610352 5.64736084 8.66564453 6.45487793 9.14941406 7.28686523 C9.63635742 8.16157471 10.12330078 9.03628418 10.625 9.9375 C11.67313252 11.76119129 12.72264354 13.58409091 13.7734375 15.40625 C14.30420898 16.33566406 14.83498047 17.26507813 15.38183594 18.22265625 C16.94419801 20.90422398 18.56616811 23.53446801 20.2265625 26.15625 C20.73493652 26.96199463 21.24331055 27.76773926 21.76708984 28.59790039 C22.73674652 30.12773574 23.71336965 31.65318342 24.69775391 33.17358398 C28.92963956 39.92907837 28.92963956 39.92907837 28 44 C24.9647481 46.02350127 22.75960157 46.75280355 19.265625 47.69140625 C18.13382812 47.99626953 17.00203125 48.30113281 15.8359375 48.61523438 C14.06089844 49.08413086 14.06089844 49.08413086 12.25 49.5625 C11.08210938 49.87896484 9.91421875 50.19542969 8.7109375 50.52148438 C-3.3113449 53.73151556 -3.3113449 53.73151556 -8 54 C-10 52 -10 52 -10.125 49.5625 C-9 47 -9 47 -5.484375 45.5078125 C-1.07251881 43.97228937 3.38953719 42.61485806 7.875 41.3125 C8.63296875 41.08755859 9.3909375 40.86261719 10.171875 40.63085938 C15.74356478 39 15.74356478 39 18 39 C17.50072998 38.17798096 17.00145996 37.35596191 16.48706055 36.5090332 C14.62510966 33.44335966 12.76333467 30.37757931 10.90161133 27.31176758 C10.09762247 25.98784544 9.29358665 24.66395182 8.48950195 23.34008789 C7.33011566 21.43122836 6.17090131 19.52226451 5.01171875 17.61328125 C4.65534836 17.02662186 4.29897797 16.43996246 3.93180847 15.83552551 C2.95354764 14.22428515 1.97673272 12.61216716 1 11 C0.41710205 10.09531982 -0.1657959 9.19063965 -0.76635742 8.25854492 C-2 6 -2 6 -1.75 3.25 C-1 1 -1 1 0 0 Z " fill="#F47E73" transform="translate(304,221)"/>
    <path d="M0 0 C4.30866976 2.60524218 6.06925229 5.41856477 8 10 C9.01035696 17.84619553 8.93291161 25.51917474 4 32 C1.64411533 34.51294365 0.46276207 34.92123199 -2.9375 35.5 C-7.10145477 34.82017065 -8.38307876 33.25346965 -11 30 C-14.92186275 24.45529749 -14.62547589 18.52894011 -14 12 C-13.11543308 7.7623073 -11.66702363 4.72110663 -8.6875 1.5 C-5.40313728 -0.33313268 -3.70767977 -0.61794663 0 0 Z " fill="#382322" transform="translate(240,190)"/>
    <path d="M0 0 C8.60780291 3.27096511 12.5942139 8.42015826 16.80078125 16.28125 C18.88422895 21.00463631 19.11884297 25.18529006 19.0625 30.3125 C19.05347656 31.38113281 19.04445312 32.44976562 19.03515625 33.55078125 C19.02355469 34.35902344 19.01195312 35.16726562 19 36 C17.0625 36.5625 17.0625 36.5625 15 37 C13.05909174 35.05909174 13.60080565 31.52706098 13.4375 28.9375 C13.35371094 27.64714844 13.26992187 26.35679687 13.18359375 25.02734375 C13.12300781 24.02832031 13.06242187 23.02929688 13 22 C11.72549553 22.59638333 10.45553123 23.20247416 9.1875 23.8125 C8.47980469 24.14894531 7.77210938 24.48539063 7.04296875 24.83203125 C4.89434114 26.06040535 3.49554771 27.02439993 2 29 C1.17121175 33.47246995 1.17434065 37.64591867 3.5625 41.5625 C6.68593503 43.40452578 9.41327507 43.72409808 13 44 C13.38218767 45.65614657 13.71395102 47.32457024 14 49 C13 50 13 50 9.875 50.3125 C5.28298663 49.94217634 2.52237715 48.93822055 -1 46 C-4.73846471 41.20709653 -5.65343382 37.42415138 -5.38671875 31.36328125 C-4.6112885 26.62454081 -1.99991696 23.94728975 1.375 20.75 C4.18135846 18.87909436 6.76241669 17.90351162 10 17 C9.09373216 15.7010161 8.17450463 14.41106833 7.25 13.125 C6.73953125 12.40570313 6.2290625 11.68640625 5.703125 10.9453125 C3.26852428 8.16450709 1.32787798 7.10992367 -2.359375 6.8046875 C-3.14828125 6.82789063 -3.9371875 6.85109375 -4.75 6.875 C-5.94882813 6.90207031 -5.94882813 6.90207031 -7.171875 6.9296875 C-8.07679688 6.96449219 -8.07679688 6.96449219 -9 7 C-9.66 8.65 -10.32 10.3 -11 12 C-12.65 11.67 -14.3 11.34 -16 11 C-15.88721848 7.16542825 -14.62045075 5.25459606 -11.9375 2.6875 C-7.79270076 -0.60795514 -5.19834282 -0.7426204 0 0 Z " fill="#F47F73" transform="translate(144,197)"/>
    <path d="M0 0 C2.8261684 0.53602382 5.44618177 1.49231489 8.125 2.5234375 C16.97191139 5.88575548 25.68015057 9.1899466 35 11 C35.97710937 11.19207031 36.95421875 11.38414062 37.9609375 11.58203125 C49.85939108 13.58431339 61.96351881 13.65123977 74 14 C74.625 15.875 74.625 15.875 75 18 C71.76741211 21.23258789 67.93788795 20.32647969 63.52856445 20.38037109 C44.7019892 20.35446674 12.59878727 19.59878727 -2 5 C-1.46428571 1.46428571 -1.46428571 1.46428571 0 0 Z " fill="#F44C47" transform="translate(246,285)"/>
</svg>
